<?xml version="1.0" encoding="UTF-8" standalone="no"?>
<!-- Created with Inkscape (http://www.inkscape.org/) -->

<svg
   width="210mm"
   height="297mm"
   viewBox="0 0 210 297"
   version="1.1"
   id="svg1016"
   inkscape:version="1.1.2 (0a00cf5339, 2022-02-04)"
   sodipodi:docname="GA.svg"
   xmlns:inkscape="http://www.inkscape.org/namespaces/inkscape"
   xmlns:sodipodi="http://sodipodi.sourceforge.net/DTD/sodipodi-0.dtd"
   xmlns="http://www.w3.org/2000/svg"
   xmlns:svg="http://www.w3.org/2000/svg">
  <sodipodi:namedview
     id="namedview1018"
     pagecolor="#ffffff"
     bordercolor="#666666"
     borderopacity="1.0"
     inkscape:pageshadow="2"
     inkscape:pageopacity="0.0"
     inkscape:pagecheckerboard="0"
     inkscape:document-units="mm"
     showgrid="false"
     inkscape:zoom="0.56123737"
     inkscape:cx="396.44544"
     inkscape:cy="559.47807"
     inkscape:window-width="1920"
     inkscape:window-height="1021"
     inkscape:window-x="0"
     inkscape:window-y="30"
     inkscape:window-maximized="1"
     inkscape:current-layer="layer1" />
  <defs
     id="defs1013" />
  <g
     inkscape:label="Layer 1"
     inkscape:groupmode="layer"
     id="layer1">
    <path
       style="fill:none;stroke:#000000;stroke-width:0.264583px;stroke-linecap:butt;stroke-linejoin:miter;stroke-opacity:1"
       d="m 137.28711,72.710777 c -0.15652,-0.787233 -0.16921,-1.617369 -0.46956,-2.361702 -0.0988,-0.244891 -2.37396,-1.574874 -2.8313,-1.880047 -0.55765,-0.3721 -0.88553,-1.0204 -1.42255,-1.421694 -2.57044,-1.92079 -6.50205,-4.82297 -9.41922,-6.121797 -0.90919,-0.404807 -1.92161,-0.544081 -2.8313,-0.94779 -2.64365,-1.173226 -4.5093,-3.226922 -7.5409,-4.241763 -5.32726,-1.783323 -10.40248,-1.887815 -16.034759,-1.887815 -3.04936,0 -6.561712,-0.478042 -9.41922,0.473903 -0.990483,0.329967 -2.285153,-0.254386 -3.300862,0 -0.344141,0.08619 -0.635325,0.315926 -0.952987,0.473887 -0.469577,0.155379 -0.928677,0.347001 -1.408731,0.466135 -1.317673,0.327001 -3.467021,-0.153141 -4.709623,0.47389 -1.446081,0.729705 0.889082,0.36884 -1.422546,0.94779 -1.059908,0.265457 -2.260407,0.119531 -3.300862,0.466135 -3.254759,1.08425 -6.611356,2.926459 -9.888807,4.24175 -1.227471,0.492601 -2.097424,1.486916 -3.300863,1.887815 -1.193707,0.397656 -3.749275,0.926902 -4.723437,1.887813 -0.110619,0.109114 0.110271,0.356669 0,0.466135 -0.199805,0.19835 -1.122269,0.32934 -1.408731,0.47389 -0.395436,0.199533 -0.569614,0.695833 -0.939147,0.940022 -1.484677,0.98108 -3.151412,2.048161 -4.723434,2.835606 -1.151765,0.576934 0.413428,-1.357728 -1.408734,0.466135 -0.247727,0.247959 -0.4425,1.085707 -0.939173,1.413912 -0.265017,0.175125 -0.668533,-0.141444 -0.952958,0 -0.141443,0.07034 0.111189,0.361693 0,0.473903 -0.526113,0.530947 -1.883785,0.958734 -2.347904,1.887813 -0.215519,0.431424 -0.642909,1.572276 -0.952958,1.880047 -0.111091,0.110273 -0.400095,-0.140258 -0.469588,0 -0.140258,0.283091 0.116745,0.654222 0,0.947793 -0.845433,2.12598 -2.127832,4.071948 -2.831303,6.129562 -0.256334,0.749758 0.151415,2.201175 -0.469559,2.827838 -0.110178,0.111186 -0.399637,-0.140028 -0.469588,0 -0.346972,0.694573 -0.103161,8.197339 0.469588,8.957415 0.638008,0.846683 1.804585,1.317813 2.361689,1.880048 0.248166,0.250451 0.221414,0.697343 0.469585,0.94779 0.158533,0.159986 1.263894,0.310576 1.422546,0.466122 0.1128,0.110588 -0.111189,0.361693 0,0.473903 0.733174,0.739912 6.578412,3.053009 8.010488,3.775629 0.578752,0.29204 2.851912,0.013 3.300862,0.46612 0.111186,0.11221 -0.111188,0.36169 0,0.4739 0.02694,0.0272 3.63238,0.63843 4.240038,0.94003 1.748388,0.86776 9.646475,-0.57384 11.31135,-1.41393 0.991137,-0.50012 3.573158,0 4.709626,0 1.053494,0 2.805477,-0.32607 3.784261,0 0.536951,0.17888 0.872305,0.76735 1.408731,0.94779 0.647552,0.21783 1.762681,-0.14757 2.361719,0 1.438979,0.3545 4.37652,2.14781 5.179182,3.76786 0.07013,0.14155 -0.111189,0.36169 0,0.4739 0.110175,0.11119 0.399637,-0.14002 0.469587,0 0.346303,0.69323 0.469559,3.11049 0.469559,4.24175 0,0.79897 0.249624,2.07618 0,2.82784 -0.406797,1.22493 -1.455118,2.88169 -2.347878,3.76786 -0.111093,0.11027 -0.400095,-0.14025 -0.469588,0 -0.140258,0.28309 0.143542,0.66635 0,0.94779 -0.07321,0.14355 -0.367408,-0.11184 -0.483399,0 -0.405352,0.39088 -0.714041,1.41651 -1.408731,1.88005 -3.471463,2.3164 -8.520888,3.54436 -12.733896,4.24953 -1.798622,0.30106 -5.373135,-0.0996 -7.071341,0.46614 -0.887812,0.29574 -1.961095,0.99503 -2.817464,1.41391 -0.425958,0.20835 -0.973113,-0.15119 -1.422545,0 -1.552641,0.52231 -3.218659,1.60937 -4.709623,2.36172 -5.29e-4,2.6e-4 -0.938522,-2.7e-4 -0.939147,0 -1.671912,0.81775 -6.012542,3.10202 -4.723434,5.65567 0.70439,1.39536 3.718621,3.74578 5.192993,4.24174 0.29672,0.0998 0.659683,-0.14103 0.939173,0 0.312714,0.15779 0.178234,0.74561 0.469588,0.94003 1.727859,1.15299 3.717343,2.17344 5.66258,2.82783 1.575488,0.53 2.450632,1.69575 3.77045,2.36171 0.279485,0.14103 0.635612,-0.0766 0.939147,0 1.134168,0.28616 2.315795,1.08256 3.300862,1.41392 1.493594,0.50242 4.860743,1.12252 6.601756,1.41394 2.387098,0.39955 11.921821,0.40067 13.673069,-0.47391 0.396261,-0.19789 0.543052,-0.7418 0.939144,-0.94003 0.497726,-0.2491 1.350999,-0.2119 1.878319,-0.47388 5.802262,-2.88264 -2.114431,0.79197 2.361719,-1.88781 0.42813,-0.25632 1.006853,-0.19011 1.422545,-0.46614 4.651587,-3.08878 8.574104,-8.30051 10.358394,-13.67307 0.18055,-0.54365 -0.25768,-1.38669 0,-1.88781 0.36273,-0.70543 0.77762,-1.47504 0.95296,-2.35395 0.2353,-1.17953 0.45228,-10.87985 0,-11.78524 -0.07,-0.14003 -0.35941,0.11119 -0.46959,0 -0.36013,-0.36343 -0.22805,-2.3125 -0.48337,-2.82784 -1.21749,-2.45733 -2.43197,-5.04218 -3.28708,-7.54349 -0.41253,-1.20669 -2.270219,-2.16931 -2.831279,-3.30172 -0.07013,-0.14155 0.111189,-0.3617 0,-0.4739 -0.563679,-0.56887 -4.569039,-2.932133 -5.66258,-3.293964 -0.736323,-0.243631 -1.681803,-0.135803 -2.361719,-0.473903 -2.196909,-1.092452 2.057617,0.206954 -1.408731,-0.940022 -1.281745,-0.424117 -2.972512,-0.0475 -4.240038,-0.473888 -0.210778,-0.0709 -0.253865,-0.419875 -0.469585,-0.473903 -1.883738,-0.471802 -4.292875,0.608574 -6.13214,0 -0.866896,-0.286837 -1.840185,-0.609851 -2.831306,-0.940025 -0.990378,-0.329925 -2.310482,0.329925 -3.300862,0 -0.210984,-0.07028 -0.313058,-0.315925 -0.469588,-0.473887 -0.469577,-0.155379 -0.928677,-0.347001 -1.408732,-0.466135 -2.307418,-0.572622 -5.975884,0.06301 -8.010487,-0.94779 -4.521753,-2.987996 0.70903,0.09296 -2.361719,-0.940025 -0.931688,-0.313415 -4.393761,-5.178595 -4.709594,-6.129563 -0.540607,-1.627745 -0.232997,-5.189177 0.469585,-6.5957 0.303255,-0.607091 5.441315,-3.076963 6.118329,-3.30174 0.598582,-0.198734 1.294339,0.201094 1.89213,0 1.302668,-0.438208 2.316554,-0.742485 3.77045,-0.947791 2.343595,-0.330943 4.721389,-1.199467 7.071344,-1.413912 5.787089,-0.528103 11.603294,-0.466135 17.44349,-0.466135 2.105628,0 4.93437,-0.264189 7.071341,0 1.182541,0.146196 3.584591,1.634265 4.240011,1.880047 1.8108,0.679046 4.26086,0.479402 6.13217,1.413926 2.88044,1.438481 6.05067,2.327918 8.94963,3.77563 1.52557,0.761855 2.70849,2.056101 4.25385,2.827838 0.10516,0.05252 2.70786,0.896387 2.81749,0.940022 1.09746,0.436814 1.89186,1.255787 2.83128,1.887815 0.71591,0.481653 1.68599,0.599065 2.36171,0.940023 0.68734,0.346815 4.15933,3.694173 4.7096,4.249517 l 0.46959,121.146425 18.38269,4.24953 1.42252,-183.85606 -19.33562,0.940023 z"
       id="path1082" />
    <path
       style="fill:#000000;stroke-width:1.78178"
       d="m 551.46007,807.73349 c -16.16963,-3.72563 -31.18292,-7.19632 -33.36287,-7.71266 l -3.96355,-0.9388 -0.4909,-229.1445 -0.49089,-229.14451 -8.018,-7.07859 c -4.4099,-3.89322 -10.4234,-8.17492 -13.36333,-9.5149 -2.93993,-1.33999 -7.75073,-4.07085 -10.69066,-6.0686 -2.93994,-1.99774 -8.15164,-4.55131 -11.58156,-5.6746 -3.42992,-1.1233 -9.44342,-4.32525 -13.36333,-7.11547 -9.28341,-6.60799 -43.06131,-20.52792 -55.30503,-22.79129 -5.2693,-0.97409 -12.97638,-3.50349 -17.12683,-5.62089 -7.34007,-3.74462 -8.88806,-3.82406 -56.64609,-2.907 -44.73403,0.859 -50.82344,1.35313 -68.48517,5.55731 -10.66197,2.53797 -20.90778,4.61449 -22.76847,4.61449 -4.0705,0 -23.20153,9.43213 -25.90622,12.77249 -1.0566,1.30493 -2.4862,6.57609 -3.17687,11.71367 -1.02083,7.59342 -0.55653,10.78549 2.48165,17.06153 4.91507,10.15319 15.67457,22.59629 19.53892,22.59629 1.68759,0 3.94437,0.87601 5.01506,1.9467 1.07069,1.07068 9.21622,2.54888 18.10119,3.28486 8.88497,0.73598 17.3796,2.35489 18.87695,3.59759 1.53079,1.27044 4.60048,1.78808 7.01293,1.1826 2.35975,-0.59226 7.78231,0.17923 12.05013,1.71441 5.43141,1.95374 10.7889,2.46297 17.8555,1.69718 6.2525,-0.67756 10.53188,-0.3885 11.24126,0.7593 0.63,1.01934 4.55298,1.85335 8.71774,1.85335 4.16476,0 9.12868,1.17721 11.03095,2.61601 1.90226,1.43878 4.88846,2.64148 6.63599,2.67266 6.05552,0.10798 21.39806,9.30967 28.459,17.06824 7.05234,7.74914 17.74363,29.05466 21.41617,42.67796 2.56131,9.50122 2.46508,51.2454 -0.14307,62.06314 -4.80326,19.92217 -24.94927,47.14581 -40.43719,54.64336 -4.39892,2.1295 -8.41941,4.55357 -8.9344,5.38685 -0.515,0.83329 -5.47528,3.66232 -11.02286,6.28674 -9.88576,4.67672 -10.63856,4.75558 -37.82718,3.96262 -22.92632,-0.66865 -29.59602,-1.49656 -38.43133,-4.77041 -5.87987,-2.17874 -12.69517,-4.41687 -15.14511,-4.9736 -2.44995,-0.55673 -5.65875,-2.05457 -7.13069,-3.32854 -1.47193,-1.27395 -8.02595,-4.71654 -14.56449,-7.65018 -6.53855,-2.93365 -13.43664,-6.88228 -15.3291,-8.77474 -1.89246,-1.89246 -5.40088,-3.93277 -7.79649,-4.53404 -5.49779,-1.37986 -19.32321,-14.00534 -19.32321,-17.64609 0,-3.81105 9.97108,-13.16711 16.6847,-15.65559 3.07313,-1.13911 9.55467,-3.80434 14.40341,-5.92275 4.84874,-2.11843 9.47841,-3.64479 10.28815,-3.39192 0.80974,0.25287 4.62819,-1.15028 8.48545,-3.11811 4.71224,-2.40401 10.5152,-3.57786 17.68714,-3.57786 12.90678,0 24.90487,-2.30721 43.71338,-8.40598 11.43536,-3.70799 15.76946,-6.20406 22.55537,-12.98996 13.14462,-13.14462 16.12827,-20.4403 14.68965,-35.91935 -0.94901,-10.21093 -2.12545,-13.89478 -5.72875,-17.93888 -6.73354,-7.55723 -15.00219,-12.05292 -22.16825,-12.05292 -3.50141,0 -6.86174,-0.8018 -7.4674,-1.78177 -1.66289,-2.69063 -32.98141,-2.13703 -45.7702,0.80905 -18.92507,4.35963 -35.42352,3.67953 -46.34829,-1.91064 -2.64627,-1.35408 -6.8113,-2.46197 -9.25562,-2.46197 -4.43775,0 -29.1918,-10.46105 -33.53047,-14.16996 -18.53562,-15.84522 -17.3904,-14.01779 -18.59575,-29.67286 -0.76706,-9.96252 -0.48349,-14.832 0.91404,-15.69571 1.11436,-0.68871 2.03764,-3.40984 2.05173,-6.04694 0.0141,-2.63711 3.88208,-12.81332 8.59555,-22.61382 7.0619,-14.68348 9.87923,-18.68554 16.01038,-22.74294 4.09225,-2.70812 7.44044,-5.62736 7.44044,-6.48719 0,-0.85984 1.80405,-2.0471 4.009,-2.63837 3.53944,-0.94911 10.18003,-4.96241 26.13751,-15.79645 2.52898,-1.717 7.40445,-4.35674 10.83437,-5.86609 3.42992,-1.50934 12.65062,-5.86978 20.49044,-9.68985 25.04889,-12.20545 35.39839,-16.29749 45.42795,-17.96152 5.38582,-0.89358 10.06299,-2.43644 10.3937,-3.42858 0.33071,-0.99214 4.16833,-1.80389 8.52804,-1.80389 4.35971,0 10.86536,-1.22783 14.45698,-2.72851 3.59164,-1.50068 7.65423,-2.2972 9.02798,-1.77004 1.37375,0.52715 7.44167,0.0475 13.48426,-1.06588 8.05969,-1.48506 19.28614,-1.52291 42.14091,-0.1421 35.26482,2.13059 46.81938,4.93401 63.00172,15.28573 5.70869,3.6518 14.56622,8.20612 19.68341,10.1207 10.3981,3.89043 29.94154,16.45427 41.81794,26.88338 4.30287,3.77852 8.55104,6.87004 9.44034,6.87004 0.88932,0 2.74955,2.60585 4.13385,5.79077 2.28721,5.26228 2.5045,2.94503 2.3809,-25.39032 -0.0748,-17.14961 -0.64477,-50.93663 -1.2666,-75.08226 l -1.13057,-43.90116 34.39782,-1.28708 c 18.91878,-0.7079 34.75137,-0.93351 35.18352,-0.50137 0.77365,0.77366 -4.17853,679.43872 -5.01012,686.60371 -0.41929,3.61272 -0.97346,3.55525 -29.82656,-3.09273 z"
       id="path1154"
       transform="scale(0.26458333)" />
  </g>
</svg>
