<?xml version="1.0" encoding="UTF-8" standalone="no"?>
<!-- Created with Inkscape (http://www.inkscape.org/) -->

<svg
   width="210mm"
   height="297mm"
   viewBox="0 0 210 297"
   version="1.1"
   id="svg1196"
   inkscape:version="1.1.2 (0a00cf5339, 2022-02-04)"
   sodipodi:docname="GHA.svg"
   xmlns:inkscape="http://www.inkscape.org/namespaces/inkscape"
   xmlns:sodipodi="http://sodipodi.sourceforge.net/DTD/sodipodi-0.dtd"
   xmlns="http://www.w3.org/2000/svg"
   xmlns:svg="http://www.w3.org/2000/svg">
  <sodipodi:namedview
     id="namedview1198"
     pagecolor="#ffffff"
     bordercolor="#666666"
     borderopacity="1.0"
     inkscape:pageshadow="2"
     inkscape:pageopacity="0.0"
     inkscape:pagecheckerboard="0"
     inkscape:document-units="mm"
     showgrid="false"
     inkscape:zoom="0.56123737"
     inkscape:cx="396.44544"
     inkscape:cy="559.47807"
     inkscape:window-width="1920"
     inkscape:window-height="1021"
     inkscape:window-x="0"
     inkscape:window-y="30"
     inkscape:window-maximized="1"
     inkscape:current-layer="layer1" />
  <defs
     id="defs1193" />
  <g
     inkscape:label="Layer 1"
     inkscape:groupmode="layer"
     id="layer1">
    <path
       style="fill:none;stroke:#000000;stroke-width:0.264583px;stroke-linecap:butt;stroke-linejoin:miter;stroke-opacity:1"
       d="M 63.742616,82.608218 12.834631,83.548241 V 64.219497 L 192.43516,62.805584 v 19.802634 l -41.48876,0.940023"
       id="path1266" />
    <path
       style="fill:none;stroke:#000000;stroke-width:0.264583px;stroke-linecap:butt;stroke-linejoin:miter;stroke-opacity:1"
       d="m 63.742614,82.608218 c -4.215876,2.43791 -8.779232,3.251761 -13.203481,4.71565 -2.593768,0.858224 -7.883051,6.476233 -9.902589,8.483515 -0.729178,0.724752 -2.089404,1.162119 -2.817495,1.887813 -1.941978,1.935591 -3.452423,4.499314 -5.192993,6.595704 -0.669036,0.89607 -1.648063,1.50719 -2.361718,2.3617 -0.768072,0.91966 -1.924564,2.877 -2.817463,3.76786 -0.251148,0.25057 -0.701361,0.22381 -0.952987,0.4739 -1.384895,1.37648 -1.715141,3.71891 -2.817465,5.18178 -0.269621,0.3578 -0.785337,0.53232 -0.952985,0.94779 -0.176363,0.43706 0.0922,0.95172 0,1.41392 -0.437759,2.1944 -1.432055,4.35127 -1.878319,6.59569 -0.295059,1.48395 0,3.18625 0,4.71566 0,2.18649 -0.427276,4.92777 0,7.06959 0.736114,3.68995 3.249016,5.62556 5.648769,8.01739 1.271643,1.26745 1.778047,3.02953 3.300865,4.24177 1.490935,1.18686 3.357816,1.94483 4.723434,3.30172 0.459102,0.45617 1.26425,1.73762 1.878319,2.35395 0.744556,0.74729 2.005952,0.75692 2.831277,1.41392 0.274032,0.21814 0.189011,0.73034 0.469585,0.94 1.039593,0.77685 2.685566,0.60506 3.770453,1.42171 1.327259,0.9991 2.196859,1.25373 3.77045,1.88005 1.418521,0.5646 2.70873,2.10539 4.240035,2.36169 0.62206,0.10411 1.280025,-0.15206 1.892131,0 1.870088,0.46454 3.739361,1.50048 5.662583,1.88004 0.46069,0.0909 0.953421,-0.11487 1.408732,0 1.540666,0.38871 3.548565,1.42345 5.179182,1.88782 1.833877,0.52224 4.715666,0 6.601756,0 2.636353,0 16.470288,-0.72805 17.913077,0 0.554527,0.27982 0.660667,0.8386 0.469585,1.41394 -0.437226,1.31647 -5.573411,8.41911 -6.587913,9.4313 -2.684362,2.67824 -5.448729,5.85316 -7.5409,8.9574 -1.063736,1.57831 -3.252571,2.66872 -4.723437,3.76786 -0.566121,0.42305 -0.962242,1.58742 -1.408732,1.88782 -0.259744,0.17475 -0.684289,-0.18177 -0.939175,0 -1.655027,1.18025 -3.001724,3.09291 -4.723405,4.24176 -2.623945,1.75091 -5.459929,3.26887 -8.010488,5.18178 -0.879213,0.6594 -1.482574,1.69994 -2.361719,2.36171 -2.537314,1.90998 -4.803534,3.87558 -7.071312,6.12955 -1.175485,1.16833 -2.760583,1.94071 -3.77045,3.29399 -1.658368,2.2223 -6.070277,5.53963 -7.071315,7.54349 -0.07059,0.14131 0.111183,0.36167 0,0.47387 -2.240039,2.26056 0.323321,-0.99523 -1.878319,0.47391 -0.436938,0.29156 -1.102048,1.35283 -1.892131,1.88004 -0.553408,0.36929 -2.004679,1.11815 -1.408731,1.41391 0.266924,0.13248 1.909048,-0.0883 2.347878,0 3.164715,0.6369 6.285682,1.35844 9.43303,1.88782 2.555854,0.42989 5.102463,1.54857 7.5409,2.36172 1.64364,0.5481 3.620818,0.41549 5.193022,0.94003 3.532831,1.17868 1.081749,0.73751 4.240009,1.41392 6.6718,1.42891 13.535454,2.14967 20.274825,2.82782 2.666995,0.26836 5.934453,0.6497 8.480044,1.41394 0.670568,0.20132 1.194781,0.78847 1.878319,0.94001 0.76858,0.17039 1.580581,-0.0978 2.361719,0 1.451607,0.18178 2.797116,1.18018 4.240037,1.42168 1.858344,0.31103 3.803112,0.56472 5.662582,0.94004 0.27699,0.0559 2.55411,0.90087 2.83128,0.94 1.24447,0.17573 2.52344,-0.15673 3.77045,0 2.08131,0.2616 4.0628,1.07041 6.13216,1.41395 0.46324,0.0769 0.93916,0 1.40874,0 0.6261,0 1.2608,-0.10336 1.87832,0 1.88168,0.31493 3.54122,1.06115 5.19299,1.88781 0.41993,0.21016 0.95324,-0.11408 1.40876,0 0.68316,0.17109 1.20879,0.76964 1.89213,0.94001 4.68017,1.16684 9.52685,1.51338 14.14263,2.82785 3.08174,0.87761 6.4209,1.27618 9.41925,2.36169 0.5344,0.19347 0.88311,0.76095 1.42251,0.94004 1.11434,0.36998 2.6517,0.0976 3.77045,0.4739 2.62117,0.8817 -2.72445,0.12422 1.40876,0.94001 1.44176,0.28456 2.84333,0.60033 4.25385,0.9478 0.88032,0.21686 2.14278,1.147 2.34788,0.94001 0.52805,-0.5329 0,-4.35349 0,-5.18177 0,-7.38552 0,-14.77104 0,-22.15657 0,-9.42871 0,-18.85743 0,-28.28614 0,-4.37078 0.48484,-9.29353 0,-13.67307 -0.0248,-0.22409 -0.91082,-3.54038 -0.93918,-3.76786 -0.15564,-1.24888 0.11342,-2.52221 0,-3.77563 -0.31969,-3.53305 -1.53529,-6.89636 -1.8921,-10.37134 -0.35687,-3.47569 0.56314,-1.37744 -0.46958,-5.18177 -0.89024,-3.27944 -2.23251,-6.68841 -3.30087,-9.90521 -1.15771,-3.48587 -0.87388,-0.20365 -1.87835,-4.24174 -1.09921,-4.41904 -0.97277,-9.15669 -1.42251,-13.67307 -0.32873,-3.30118 -1.41661,-6.65088 -1.87835,-9.89744 -0.49023,-3.44685 -0.12395,-6.90043 -0.46959,-10.37132 -0.31366,-3.14991 -1.25039,-8.17883 -0.46958,-11.31135 0.24022,-0.96375 0.66743,-1.8725 0.93917,-2.827842 0.17227,-0.605621 0.38833,-12.427193 0,-13.199165 -0.41299,-0.820987 -0.94834,-1.57447 -1.42251,-2.361703"
       id="path1373" />
    <path
       style="fill:none;stroke:#000000;stroke-width:0.264583px;stroke-linecap:butt;stroke-linejoin:miter;stroke-opacity:1"
       d="m 73.645233,83.082105 c 17.438907,0 34.877807,0 52.316717,0 0.61303,0 11.17843,-0.145658 11.32516,0 0.4026,0.399664 -0.13327,14.556383 0,16.027003 0.0722,0.796846 0.31306,1.569302 0.46959,2.353952 0.15653,0.94261 0.39052,1.87559 0.46958,2.82784 0.14314,1.72391 -0.28298,3.48299 0,5.18954 0.51506,3.10597 1.97395,5.98698 2.83128,8.95741 0.26139,0.90565 -0.13273,1.89462 0,2.82784 0.26764,1.88181 1.13526,3.73717 1.40876,5.65566 0.38559,2.70473 0,5.75491 0,8.48353 0,7.70146 0,15.40291 0,23.10437 0,3.38223 -0.37165,7.00004 0,10.36355 0.15652,0.9452 0.31304,1.89041 0.46956,2.83562 0.15653,0.31333 0.41221,0.59448 0.46959,0.94001 0.57914,3.48756 -0.94692,8.50453 0,11.78525 0.15761,0.54607 0.77147,0.87531 0.95298,1.41391 0.30103,0.89326 -0.1844,1.90345 0,2.82785 0.0685,0.34349 0.40104,0.59653 0.46956,0.94001 0.5868,2.94164 -0.43878,6.22233 0.46959,8.9574 0.85915,2.58687 -1.04337,10.15325 0,12.25916 1.06495,2.14947 0.37206,4.32359 0.93917,6.60345 0.31734,1.27574 0.67445,2.47861 0.93918,3.76786 0.88864,4.32785 0.0437,-1.32368 0.95292,1.41395 0.20803,0.62636 -0.29881,1.75577 0,2.35391 0.47434,0.94951 1.40877,4.57766 1.40877,5.66345 0,0.92039 1.16094,0.0185 0.46958,1.41394 -0.37469,0.75628 -1.54758,-0.67988 -2.34793,-0.94781 -2.22784,-0.74579 -4.70138,-1.56062 -7.07129,-2.35395 -1.784,-0.59719 -3.33391,-1.42218 -5.19302,-1.88781 -1.165,-0.29179 -2.62642,-0.0813 -3.77045,-0.46611 -4.09983,-1.37918 -7.85847,-2.75877 -12.2505,-3.30175 -2.96817,-0.36695 -6.00584,-0.45846 -8.96344,-0.94778 -1.61141,-0.2666 -3.174,-1.10579 -4.70962,-1.41391 -0.86801,-0.17416 -1.96254,0.17247 -2.83128,0 -1.09387,-0.21717 -2.21021,-0.71989 -3.300892,-0.94004 -1.078537,-0.21769 -2.206072,0.10984 -3.300862,0 -7.094712,-0.71181 0.02881,-0.0926 -4.240038,-0.94001 -0.307057,-0.0609 -0.626097,0 -0.939147,0 -0.474181,0 -0.95763,0.0933 -1.422543,0 -0.343802,-0.069 -0.592079,-0.42407 -0.939175,-0.4739 -6.849319,-0.98335 -14.141635,0.8071 -20.744381,-1.41391 -0.296712,-0.0998 -0.718809,0.22237 -0.939146,0 -0.487958,-0.49248 1.405776,-4.71958 1.878319,-5.18957 0.114242,-0.11362 0.409689,0.14329 0.48337,0 0.14329,-0.27866 -0.09876,-0.64265 0,-0.94001 0.01992,-0.06 3.535177,-3.06788 3.77045,-3.30173 0.325874,-0.3239 1.163463,-2.11346 1.878319,-2.35395 0.29672,-0.0998 0.658813,0.13929 0.939176,0 1.534192,-0.7622 3.004807,-2.25918 4.723408,-2.82785 2.079029,-0.68793 4.072345,-1.34523 6.118354,-2.36169 0.906301,-0.45025 1.213535,-1.42724 1.892131,-1.88004 0.260411,-0.17376 0.648642,0.1166 0.939175,0 2.937582,-1.17891 7.158609,-4.29999 9.90259,-6.12958 5.342542,-3.56222 11.702202,-7.03763 16.034782,-11.31135 0.32649,-0.32205 0.70023,-1.8795 0.93915,-2.36172 0.27159,-0.54816 0.66759,-0.86575 0.93917,-1.41391 0.2987,-0.60289 -0.16307,-1.69836 0,-2.35395 0.42606,-1.71282 1.41016,-5.65429 0,-7.07735 -0.29036,-0.29303 -1.85497,-1.63218 -2.36171,-1.88005 -0.28122,-0.13755 -0.71881,0.22237 -0.93915,0 -0.24817,-0.25046 -0.17705,-0.75099 -0.46959,-0.94781 -0.64603,-0.43465 -4.4588,-0.87696 -4.70962,-0.94001 -3.16831,-0.79644 -5.88754,-2.2755 -8.96344,-3.30172 -0.761184,-0.25396 -1.643236,-0.10884 -2.361723,-0.46614 -0.398237,-0.19804 -0.541409,-0.74875 -0.939146,-0.9478 -2.457464,-1.22984 -4.209394,-3.64243 -7.071313,-4.71564 -2.043104,-0.76616 -4.457739,-1.45335 -6.601756,-1.88005 -1.394791,-0.27758 -2.872703,-0.0829 -4.240035,-0.4739 -0.81053,-0.23179 -1.530088,-0.73531 -2.347878,-0.94001 -2.020472,-0.50573 -5.1587,-0.18654 -7.071344,-0.94781 -4.240744,-1.68789 -8.152112,-4.35877 -11.325162,-7.54348 -0.312615,-0.31377 -0.626096,-0.62668 -0.939143,-0.94001 -0.313061,-0.47132 -0.540097,-1.01285 -0.939176,-1.41394 -0.247317,-0.24857 -0.690449,-0.22669 -0.939144,-0.47388 -0.249907,-0.24839 -0.201152,-0.72912 -0.483399,-0.94004 -0.396867,-0.29656 -0.965681,-0.25217 -1.408734,-0.4739 -0.43021,-0.2153 -5.504826,-6.60816 -5.662581,-7.06959 -0.231857,-0.67817 0,-2.67143 0,-3.30172 0,-7.51933 2.254433,-12.19445 6.132169,-18.38095 1.284782,-2.04973 1.533731,-3.7022 2.831277,-5.65568 1.147405,-1.72743 2.330363,-4.216076 3.77045,-5.663442 0.110403,-0.110961 0.375724,0.125264 0.469588,0 0.420063,-0.560605 0.576823,-1.280502 0.939144,-1.880047 1.122502,-1.857444 3.215131,-4.139748 4.723436,-5.655676 2.609239,-2.622428 5.35322,-4.153939 7.071313,-7.54349 z"
       id="path1377" />
    <path
       style="fill:#000000;stroke-width:1.78178"
       d="m 606.69516,953.07242 c -5.38987,-1.39002 -11.16791,-3.30659 -12.84007,-4.25906 -1.67215,-0.95245 -6.48295,-2.27319 -10.69067,-2.93496 -4.2077,-0.66177 -9.25396,-2.19704 -11.21391,-3.41171 -3.97828,-2.4655 -43.51649,-11.90619 -66.81665,-15.95405 -16.64084,-2.89095 -31.4071,-6.85238 -40.90588,-10.974 -3.38868,-1.4704 -12.80592,-3.35899 -20.92725,-4.19689 -8.1213,-0.8379 -15.6321,-2.05872 -16.69063,-2.71293 -1.05856,-0.65424 -8.07819,-1.81428 -15.5992,-2.57792 -17.36338,-1.76296 -41.98166,-6.57866 -50.68251,-9.91425 -3.69475,-1.41644 -8.73128,-2.57535 -11.1923,-2.57535 -2.46103,0 -9.05966,-1.53029 -14.66362,-3.40064 -5.60396,-1.87037 -22.6169,-4.70172 -37.80655,-6.29192 -36.2384,-3.79376 -68.46585,-9.19073 -80.829,-13.53604 -5.47394,-1.92393 -11.77396,-3.49805 -14.00006,-3.49805 -2.22609,0 -10.26005,-2.06899 -17.85324,-4.59776 -7.59319,-2.52877 -24.63449,-6.78835 -37.86954,-9.46576 l -24.06373,-4.86799 4.90059,-4.56618 c 2.69532,-2.51138 5.85173,-4.21551 7.01424,-3.78694 1.16251,0.42857 3.52052,-1.4755 5.24002,-4.23129 8.61154,-13.80143 73.44055,-72.29023 93.68301,-84.52092 6.77466,-4.0933 16.19634,-10.92974 20.9371,-15.19208 4.74074,-4.26235 9.21715,-7.74971 9.94757,-7.74971 0.73042,0 3.81981,-2.31695 6.86532,-5.1488 31.91829,-29.679 75.2587,-83.02917 73.76247,-90.79847 -0.91624,-4.75761 -8.07175,-5.35659 -52.1892,-4.36866 -40.62299,0.90968 -43.234,0.76874 -52.18294,-2.81657 -5.18116,-2.07577 -11.36543,-3.77414 -13.74282,-3.77414 -2.37738,0 -8.39088,-1.6036 -13.36333,-3.56355 -4.97244,-1.95996 -10.91009,-3.56356 -13.19477,-3.56356 -2.28467,0 -12.67704,-4.4099 -23.09414,-9.79977 -10.4171,-5.38988 -20.10439,-9.79978 -21.52731,-9.79978 -1.42292,0 -3.22832,-1.09406 -4.012,-2.43127 -0.78368,-1.3372 -3.96017,-3.72671 -7.05886,-5.31002 -3.0987,-1.5833 -7.5086,-5.22112 -9.79978,-8.08404 -2.29118,-2.86293 -7.97953,-7.74993 -12.64077,-10.86001 -4.66125,-3.11009 -10.63989,-8.60115 -13.28588,-12.20234 -2.64598,-3.6012 -9.376282,-11.40638 -14.956229,-17.34487 -6.343496,-6.75108 -10.875785,-13.4281 -12.094519,-17.81777 -3.338796,-12.02577 -2.462051,-43.43847 1.571535,-56.30612 1.947311,-6.21217 3.550911,-13.40162 3.563554,-15.97658 0.01265,-2.57493 1.235021,-5.68761 2.716398,-6.91704 1.481377,-1.22944 4.251184,-5.75694 6.155127,-10.06112 1.903943,-4.30417 6.104054,-10.48036 9.333584,-13.72487 7.91449,-7.95118 21.99883,-24.55186 32.33627,-38.11355 4.6687,-6.12486 9.29424,-11.13611 10.279,-11.13611 0.98475,0 7.95364,-5.84298 15.48641,-12.98439 20.34225,-19.28538 25.31024,-22.47808 43.46445,-27.93264 23.15759,-6.95786 38.73893,-13.73144 34.97391,-15.20399 -1.63082,-0.63784 -42.64688,-0.29854 -91.14679,0.754 -48.49991,1.05253 -90.663236,1.9137 -93.696284,1.9137 h -5.514634 v -35.34238 -35.34238 l 166.150728,-1.17969 c 91.38291,-0.64882 243.32396,-1.71446 337.6468,-2.36807 l 171.49606,-1.18839 v 35.92868 35.92867 h -6.18606 c -18.7433,0 -149.81688,3.95795 -150.40048,4.54155 -0.38091,0.38091 0.61874,2.69389 2.22145,5.13993 4.122,6.29098 4.14119,48.80184 0.0285,62.9493 -1.95504,6.72509 -2.51539,12.84683 -1.73758,18.98289 0.63143,4.98121 1.8914,21.88555 2.79992,37.56519 0.90853,15.67964 3.21914,36.12553 5.13468,45.43532 1.91553,9.30978 4.01504,24.94488 4.66558,34.74466 1.62122,24.42239 4.07305,37.60435 8.94803,48.10798 8.23288,17.73857 15.47347,42.39258 16.94478,57.69646 0.81199,8.44602 2.42221,19.36541 3.57829,24.2653 1.15605,4.89988 2.92412,15.72418 3.92901,24.05399 2.15399,17.85482 3.91139,281.59782 1.8748,281.35892 -0.75909,-0.0891 -5.79004,-1.2992 -11.17992,-2.6892 z M 568.7025,876.4546 c 0.60203,-1.56887 0.3542,-3.37292 -0.55074,-4.009 -1.72924,-1.21547 -5.85341,-18.28228 -6.90883,-28.59032 -0.34083,-3.32888 -1.36307,-6.53608 -2.27164,-7.12711 -0.90856,-0.59105 -2.52953,-6.28633 -3.60215,-12.65618 -1.07263,-6.36985 -2.89064,-17.05289 -4.04007,-23.74008 -1.21583,-7.07362 -1.64401,-18.62378 -1.02379,-27.61755 0.58633,-8.50246 0.27887,-25.48151 -0.68326,-37.73123 -0.9621,-12.24972 -1.74885,-24.12557 -1.7483,-26.39076 5.6e-4,-2.26521 -1.30771,-6.64933 -2.90725,-9.74249 -2.3745,-4.5918 -2.71575,-9.02323 -1.85936,-24.14592 0.78603,-13.8804 0.34488,-21.26216 -1.76039,-29.45661 -2.41559,-9.40226 -2.68983,-21.67165 -1.95689,-87.55106 0.69801,-62.73882 0.3912,-78.39147 -1.69385,-86.4162 -1.40044,-5.38988 -2.5604,-12.60607 -2.57768,-16.036 -0.0178,-3.42992 -2.75284,-14.38459 -6.07903,-24.34369 -4.40626,-13.19306 -5.98032,-20.93031 -5.7997,-28.50843 0.13634,-5.72054 -0.44327,-14.81087 -1.28801,-20.20074 -0.84476,-5.38988 -1.56669,-23.02948 -1.60426,-39.1991 l -0.0683,-29.39933 -121.39333,-0.45774 -121.3933,-0.45775 -2.77626,4.23709 c -1.52693,2.33039 -10.09008,11.34611 -19.02921,20.03492 -8.93912,8.68882 -19.03182,19.81691 -22.42819,24.7291 -3.39639,4.91219 -8.41069,11.85175 -11.14292,15.42125 -2.73223,3.5695 -12.36387,20.55582 -21.40366,37.74737 -17.98568,34.20452 -21.56274,45.61191 -21.60699,68.90549 l -0.0254,13.36333 10.77631,13.80877 c 5.92697,7.59483 11.79074,13.80878 13.03059,13.80878 1.23984,0 5.80915,4.08291 10.15401,9.07315 17.33031,19.90448 42.16686,34.62836 61.61143,36.52518 6.71774,0.65532 14.91786,2.28989 18.22245,3.63235 3.30461,1.34248 8.53243,2.44086 11.61736,2.44086 6.81322,0 29.70303,6.18665 37.3806,10.10321 3.06577,1.56394 10.56814,6.74581 16.67195,11.51525 6.10384,4.76946 12.348,8.67175 13.87595,8.67175 1.52794,0 10.1645,2.8676 19.19236,6.37244 9.02784,3.50485 20.82417,7.10213 26.21404,7.99398 5.38988,0.89185 10.68997,2.83506 11.77798,4.31823 1.08802,1.48317 3.15319,2.69668 4.5893,2.69668 1.4361,0 4.46706,1.9756 6.73548,4.39021 3.87552,4.12531 4.05074,5.29776 2.90392,19.43176 -2.09685,25.84244 -7.20982,32.52307 -42.67109,55.75422 -9.94413,6.51455 -25.80396,16.93611 -35.24409,23.15906 -9.4401,6.22293 -20.75982,12.90511 -25.15493,14.84928 -4.39511,1.94415 -8.97209,4.71684 -10.17105,6.16151 -1.19897,1.44468 -8.65339,5.1231 -16.56539,8.17429 -7.91199,3.05119 -17.24556,7.49111 -20.74126,9.8665 -3.49571,2.3754 -7.68109,4.31891 -9.30085,4.31891 -1.61977,0 -4.28859,2.05054 -5.93073,4.55675 -1.64212,2.50621 -6.09837,7.36886 -9.90273,10.80587 -7.37125,6.65949 -16.02985,22.00321 -16.02985,28.40617 0,5.13315 5.7702,6.05417 49.88977,7.96319 19.10956,0.82687 37.15005,1.99266 40.08999,2.59066 2.93993,0.59802 12.56153,1.78731 21.38132,2.64286 8.8198,0.85556 18.75601,2.39658 22.08045,3.42451 3.32446,1.02792 6.72606,1.44769 7.55913,0.93281 0.83309,-0.51486 7.33378,0.65644 14.446,2.60289 7.11221,1.94647 21.59359,4.4339 32.18084,5.52763 10.58724,1.09372 26.22234,4.06471 34.74465,6.60219 15.68353,4.6697 21.49795,6.16039 35.98556,9.22582 9.9057,2.09595 48.377,15.88759 50.69156,18.1725 2.60213,2.56879 6.31621,1.98619 7.53175,-1.18148 z"
       id="path1449"
       transform="scale(0.26458333)" />
  </g>
</svg>
