<?xml version="1.0" encoding="UTF-8" standalone="no"?>
<!-- Created with Inkscape (http://www.inkscape.org/) -->

<svg
   width="210mm"
   height="297mm"
   viewBox="0 0 210 297"
   version="1.1"
   id="svg423"
   sodipodi:docname="KA.svg"
   inkscape:version="1.1.2 (0a00cf5339, 2022-02-04)"
   xmlns:inkscape="http://www.inkscape.org/namespaces/inkscape"
   xmlns:sodipodi="http://sodipodi.sourceforge.net/DTD/sodipodi-0.dtd"
   xmlns="http://www.w3.org/2000/svg"
   xmlns:svg="http://www.w3.org/2000/svg">
  <sodipodi:namedview
     id="namedview425"
     pagecolor="#ffffff"
     bordercolor="#666666"
     borderopacity="1.0"
     inkscape:pageshadow="2"
     inkscape:pageopacity="0.0"
     inkscape:pagecheckerboard="0"
     inkscape:document-units="mm"
     showgrid="false"
     inkscape:zoom="0.56123737"
     inkscape:cx="396.44544"
     inkscape:cy="559.47807"
     inkscape:window-width="1920"
     inkscape:window-height="1021"
     inkscape:window-x="0"
     inkscape:window-y="30"
     inkscape:window-maximized="1"
     inkscape:current-layer="layer1" />
  <defs
     id="defs420">
    <inkscape:path-effect
       effect="spiro"
       id="path-effect550"
       is_visible="true"
       lpeversion="1" />
  </defs>
  <g
     inkscape:label="Layer 1"
     inkscape:groupmode="layer"
     id="layer1">
    <path
       style="fill:none;stroke:#000000;stroke-width:0.264583px;stroke-linecap:butt;stroke-linejoin:miter;stroke-opacity:1"
       d="M 206.1082,58.0977 2.4624546,58.563821 3.4016,77.892565"
       id="path460" />
    <path
       style="fill:none;stroke:#000000;stroke-width:0.264583px;stroke-linecap:butt;stroke-linejoin:miter;stroke-opacity:1"
       d="M 3.4016,77.892565 82.594867,77.418662 5.2799194,154.73362 4.8103612,179.71801 94.389616,264.10258 113.24187,263.62868"
       id="path462" />
    <path
       style="fill:none;stroke:#000000;stroke-width:0.264583px;stroke-linecap:butt;stroke-linejoin:miter;stroke-opacity:1"
       d="M 90.605352,111.36048 33.095644,159.92316"
       id="path464" />
    <path
       style="fill:none;stroke:#000000;stroke-width:0.264583px;stroke-linecap:butt;stroke-linejoin:miter;stroke-opacity:1"
       d="m 33.095644,159.92316 67.881916,68.34978"
       id="path466" />
    <path
       style="fill:none;stroke:#000000;stroke-width:0.264583px;stroke-linecap:butt;stroke-linejoin:miter;stroke-opacity:1"
       d="m 90.60535,111.36048 10.37221,116.91246"
       id="path468" />
    <path
       style="fill:none;stroke:#000000;stroke-width:0.264583px;stroke-linecap:butt;stroke-linejoin:miter;stroke-opacity:1"
       d="m 119.84362,110.89436 5.64877,149.44035"
       id="path470" />
    <path
       style="fill:none;stroke:#000000;stroke-width:0.264583px;stroke-linecap:butt;stroke-linejoin:miter;stroke-opacity:1"
       d="m 113.24187,263.62868 12.25052,-3.29397"
       id="path472" />
    <path
       style="fill:none;stroke:#000000;stroke-width:0.264583px;stroke-linecap:butt;stroke-linejoin:miter;stroke-opacity:1"
       d="m 119.84362,110.89436 c 1.4694,0.84902 3.06061,1.48685 4.7096,1.88782 3.68213,0.89535 7.53741,0.59782 11.31135,0.94002 5.58312,0.50625 11.1944,2.55646 15.08183,6.5957 1.79285,1.86286 3.1651,4.08035 4.57549,6.24722 1.41038,2.16688 2.89613,4.32741 4.85751,6.01191 0.33719,0.28959 0.69283,0.57006 0.93917,0.94003 0.3599,0.54054 0.44947,1.22311 0.39477,1.87019 -0.0547,0.64709 -0.24176,1.27433 -0.39477,1.90544 -0.6424,2.64963 -0.66762,5.53812 0.4834,8.00963 0.37819,0.81207 0.8833,1.58636 1.0339,2.46943 0.0753,0.44154 0.0557,0.90683 -0.11355,1.32152 -0.16928,0.41469 -0.49879,0.77332 -0.92035,0.92468 -0.17216,0.0618 -0.35519,0.0887 -0.52799,0.14872 -0.0864,0.03 -0.17045,0.0685 -0.24482,0.12178 -0.0744,0.0532 -0.13894,0.12177 -0.18017,0.20341 -0.0358,0.0709 -0.0533,0.15005 -0.0585,0.2293 -0.005,0.0793 0.001,0.15883 0.0121,0.23754 0.0212,0.15742 0.058,0.31476 0.0464,0.47317 -0.0126,0.17193 -0.0827,0.33658 -0.18299,0.47683 -0.10025,0.14024 -0.22977,0.25747 -0.3685,0.35982 -0.27745,0.20469 -0.59466,0.35389 -0.85728,0.57729 -0.43408,0.36925 -0.6812,0.90573 -0.93911,1.41391 -0.7864,1.54949 -1.81684,3.016 -3.23007,4.027 -0.70662,0.50551 -1.50399,0.89067 -2.34997,1.08855 -0.84598,0.19787 -1.74102,0.20512 -2.58014,-0.0201 -0.83913,-0.22518 -1.61934,-0.68716 -2.18956,-1.34267 -0.57021,-0.65551 -0.92245,-1.5059 -0.94198,-2.3745 -0.0195,-0.86859 0.30291,-1.74752 0.90878,-2.37022 0.60588,-0.6227 1.49381,-0.97129 2.35864,-0.88815 0.15685,0.0151 0.31807,0.0433 0.46959,0 0.087,-0.0248 0.16679,-0.0728 0.23195,-0.13553 0.0652,-0.0627 0.11581,-0.13994 0.15062,-0.22342 0.0696,-0.16696 0.075,-0.35567 0.0413,-0.53339 -0.0675,-0.35543 -0.28058,-0.66328 -0.42388,-0.99547 -0.22843,-0.52954 -0.27769,-1.12458 -0.21003,-1.6973 0.0677,-0.57273 0.24781,-1.12666 0.46333,-1.66158 0.43104,-1.06984 1.01329,-2.10178 1.16921,-3.2446 0.19308,-1.41514 -0.3213,-2.89175 -1.28834,-3.9428 -0.96704,-1.05106 -2.35661,-1.67941 -3.77952,-1.80278 -1.42291,-0.12337 -2.87017,0.24196 -4.11304,0.94563 -1.24288,0.70367 -2.28541,1.73538 -3.08341,2.9199 -0.31622,0.46938 -0.59613,0.96379 -0.93917,1.41394 -0.80941,1.06216 -1.9366,1.83642 -2.83128,2.82782 -0.85467,0.94707 -1.48767,2.08732 -1.87832,3.30173 -0.29366,0.91289 -0.45243,1.86904 -0.46958,2.82785 -0.3337,0.46022 -0.6516,0.93189 -0.95296,1.41391 -0.89577,1.43277 -1.6605,3.01531 -1.72876,4.70367 -0.0341,0.84418 0.11251,1.70267 0.48345,2.46175 0.37094,0.75908 0.97318,1.4138 1.72868,1.79199 0.31295,0.15666 0.65137,0.26699 0.93917,0.46613 0.46801,0.32383 0.75167,0.84405 1.07012,1.31573 0.15923,0.23585 0.33225,0.46508 0.54468,0.65442 0.21242,0.18933 0.46744,0.33806 0.74692,0.39157 0.15465,0.0296 0.31491,0.0296 0.46956,0 0.34012,0.0902 0.66168,0.24977 0.93917,0.46613 0.17585,0.13711 0.33409,0.29679 0.46959,0.47388 -0.0714,0.18382 -0.0615,0.39758 0.0266,0.574 0.0881,0.17642 0.25309,0.31274 0.44295,0.36604 0.15143,0.0425 0.31215,0.0336 0.46869,0.0182 0.15654,-0.0153 0.31429,-0.0368 0.47048,-0.0182 0.22735,0.027 0.43886,0.1385 0.61306,0.28706 0.17419,0.14857 0.31406,0.33315 0.4403,0.52414 0.25248,0.38199 0.46764,0.80843 0.83878,1.07661 0.32933,0.23796 0.74471,0.32225 1.14941,0.35837 0.40469,0.0361 0.81499,0.0305 1.2123,0.11553 0.45138,0.0966 0.87169,0.30767 1.25601,0.56334 0.38433,0.25567 0.73625,0.55632 1.0919,0.85057 2.93461,2.42801 6.27663,4.50354 10.00591,5.27787 1.86464,0.38716 3.80881,0.4387 5.67286,0.0487 1.86406,-0.38998 3.6452,-1.23018 5.06558,-2.49876 0.73107,-0.65294 1.36223,-1.41226 2.10295,-2.05422 0.74073,-0.64196 1.62914,-1.17536 2.60668,-1.24751 0.26103,-0.0193 0.52564,-0.005 0.78239,-0.0563 0.12837,-0.0254 0.25445,-0.0674 0.36678,-0.13451 0.11232,-0.0671 0.21061,-0.16047 0.2734,-0.27529 0.063,-0.11522 0.0884,-0.24748 0.0982,-0.37844 0.01,-0.13096 0.005,-0.26261 0.0124,-0.39374 0.007,-0.13113 0.0272,-0.26378 0.0832,-0.38257 0.056,-0.1188 0.15191,-0.22316 0.27573,-0.26693 0.0745,-0.0263 0.15517,-0.0299 0.23399,-0.0248 0.0788,0.005 0.15688,0.0184 0.2356,0.0248 0.33295,0.0271 0.6698,-0.0728 0.95246,-0.25082 0.28266,-0.17803 0.51335,-0.43096 0.69333,-0.71238 0.35995,-0.56284 0.51845,-1.22639 0.71595,-1.86463 0.54782,-1.77035 1.46022,-3.46112 2.83128,-4.70789 0.74327,-0.67589 1.60642,-1.20995 2.34788,-1.88782 1.4453,-1.32135 2.38941,-3.23146 2.36174,-5.18954 -0.009,-0.62807 -0.11367,-1.26229 0,-1.88005 0.0903,-0.49095 0.31422,-0.94524 0.51995,-1.40007 0.20574,-0.45483 0.39833,-0.92902 0.41917,-1.42778 0.0238,-0.56846 -0.17674,-1.11902 -0.28155,-1.67824 -0.0524,-0.2796 -0.081,-0.56651 -0.0453,-0.84873 0.0357,-0.28223 0.13927,-0.5609 0.32687,-0.77476 0.14691,-0.16747 0.34122,-0.29183 0.46959,-0.4739 0.11573,-0.16414 0.1699,-0.36591 0.18099,-0.56644 0.0111,-0.20052 -0.0187,-0.40112 -0.0587,-0.59794 -0.04,-0.19681 -0.0902,-0.39168 -0.12075,-0.59017 -0.0306,-0.1985 -0.0411,-0.40247 -0.002,-0.59937 0.0566,-0.28186 0.21268,-0.53429 0.39206,-0.75896 0.17937,-0.22468 0.38435,-0.42809 0.56092,-0.65498 0.65698,-0.84419 0.87608,-1.96674 0.80002,-3.03374 -0.076,-1.06701 -0.42249,-2.09493 -0.80002,-3.09581 -0.42312,-1.12175 -0.88933,-2.22797 -1.42257,-3.30175 -0.9126,-1.83767 -2.02117,-3.57795 -3.30086,-5.18178 0.18215,-0.4476 0.18215,-0.96631 0,-1.41391 -0.2138,-0.52537 -0.65135,-0.92513 -0.93912,-1.41391 -0.38261,-0.64988 -0.48248,-1.42121 -0.60908,-2.16466 -0.0633,-0.37172 -0.13555,-0.7434 -0.25726,-1.10029 -0.12172,-0.35689 -0.29478,-0.70022 -0.54242,-0.98458 -0.29582,-0.33969 -0.68455,-0.58183 -1.04287,-0.8548 -0.35831,-0.27297 -0.70288,-0.59926 -0.84929,-1.02525 -0.0822,-0.23931 -0.0967,-0.49574 -0.14354,-0.74443 -0.0234,-0.12434 -0.0552,-0.24779 -0.10676,-0.36334 -0.0515,-0.11555 -0.12356,-0.22335 -0.21923,-0.30615 -0.13342,-0.11548 -0.30426,-0.17629 -0.47057,-0.23526 -0.16632,-0.059 -0.33691,-0.12118 -0.4686,-0.23863 -0.13194,-0.11767 -0.21364,-0.28124 -0.27694,-0.4463 -0.0633,-0.16507 -0.11173,-0.33655 -0.19265,-0.49373 -0.10727,-0.20835 -0.26923,-0.38553 -0.45459,-0.52891 -0.18535,-0.14338 -0.394,-0.25421 -0.60861,-0.34832 -0.42922,-0.18822 -0.88686,-0.3126 -1.29849,-0.53669 -0.70005,-0.3811 -1.22028,-1.02537 -1.63816,-1.70411 -0.41788,-0.67874 -0.75259,-1.40729 -1.19317,-2.07152 -1.38096,-2.08195 -3.67745,-3.36151 -5.9743,-4.34439 -2.29685,-0.98287 -4.71338,-1.76569 -6.75957,-3.1991 -1.1052,-0.77422 -2.09013,-1.73082 -3.28705,-2.35394 -1.30027,-0.676919 -2.78813,-0.923461 -4.25385,-0.947787 -1.10053,-0.01826 -2.20332,0.08308 -3.30086,0 -2.89358,-0.219033 -5.58366,-1.702507 -8.48008,-1.880047 -0.78596,-0.04818 -1.57429,0.0011 -2.36172,0 -3.29114,-0.0047 -6.51131,-0.886704 -9.67527,-1.79279 -3.16396,-0.906086 -6.35811,-1.849699 -9.64656,-1.982838 -1.74178,-0.07052 -3.49275,0.08926 -5.193,0.473887 L 109.941,75.538617 204.69944,74.590825"
       id="path548"
       inkscape:path-effect="#path-effect550"
       inkscape:original-d="m 119.84362,110.89436 c 2.2372,-1.19054 3.0584,1.52174 4.7096,1.88782 3.72885,0.8267 7.55912,0.626 11.31135,0.94002 4.79647,0.40141 11.08395,4.30925 15.08183,6.5957 5.86491,3.35424 7.40684,6.15842 9.433,12.25913 0.13961,0.42035 0.79957,0.51968 0.93917,0.94003 0.36592,1.10177 -0.23362,2.63799 0,3.77563 0.5354,2.60711 0.4834,5.24344 0.4834,8.00963 0,1.11677 0.50421,3.73513 0,4.71563 -1.0629,2.06696 0.0667,-0.55515 -0.95298,0.47391 -0.005,0.005 0.005,0.92961 0,0.94001 -0.48274,0.96632 -0.62426,0.62874 -1.40877,1.41394 -0.29015,0.29041 -0.30091,1.10173 -0.93911,1.41391 -1.3894,0.67964 -8.0243,-1.3721 -8.0243,-1.88005 0,-0.15652 0.35941,0.11119 0.46959,0 0.26886,-0.27133 -0.13034,-1.50655 0,-1.88781 0.59342,-1.73596 2.46556,-4.51553 1.42251,-6.60348 -2.24367,-4.49133 -8.62308,-3.66108 -12.26431,-1.88005 -0.55385,0.27091 -0.77846,1.09221 -0.93917,1.41394 -0.1857,0.37175 -2.30789,1.80162 -2.83128,2.82782 -0.61718,1.21013 -1.06535,2.07779 -1.87832,3.30173 -0.41193,0.62019 -0.22199,2.08235 -0.46958,2.82785 0.28274,0.86042 -0.76911,0.87611 -0.95296,1.41391 -0.34618,1.01263 -0.0804,8.10872 0.48337,8.95741 0.19338,0.29112 0.6925,0.21855 0.93917,0.46613 0.79839,0.80132 1.30957,1.66069 2.36172,2.36172 0.13026,0.0868 0.31304,0 0.46956,0 0.31306,0.15538 0.64846,0.27215 0.93917,0.46613 0.18499,0.12343 0.31306,0.31592 0.46959,0.47388 0.15652,0.31334 0.17821,0.74562 0.46956,0.94004 0.2604,0.17376 0.65927,-0.14021 0.93917,0 0.0351,0.0176 1.85426,1.8593 1.89214,1.88781 1.34313,1.01107 0.61467,0.0364 2.36171,0.4739 0.0299,0.007 2.05538,1.26738 2.34791,1.41391 3.41421,1.71028 16.8781,4.7786 20.74435,2.82783 1.76211,-0.8891 3.11837,-2.24153 4.70963,-3.30173 1.738,-1.15797 -1.62412,2.58326 1.42257,-0.46613 0.50815,-0.50861 0.0564,-0.5879 0.46953,-1.42168 0.0695,-0.14026 0.33938,0.0869 0.46959,0 0.75581,-0.50432 1.86794,-2.08442 2.36174,-2.82783 0.78435,-1.18082 1.73334,-3.61661 2.83128,-4.70789 0.65358,-0.64962 1.87918,-0.9457 2.34788,-1.88782 0.7762,-1.56023 1.80955,-3.52691 2.36174,-5.18954 0.18746,-0.56443 -0.18745,-1.31562 0,-1.88005 0.28482,-0.85757 0.73983,-1.82873 0.93912,-2.82785 0.21529,-1.07931 -0.21463,-2.22228 0,-3.30173 0.0434,-0.21811 0.39949,-0.26285 0.46959,-0.4739 0.2347,-0.70669 -0.23471,-1.64723 0,-2.35392 0.16594,-0.49964 0.71198,-0.9453 0.95298,-1.41394 0.4166,-0.81011 0.32702,-5.48838 0,-6.12955 -0.56141,-1.10073 -0.88798,-2.22265 -1.42257,-3.30175 -0.87955,-1.77543 -2.65337,-3.2322 -3.30086,-5.18178 -0.30204,-0.42246 0.14854,-0.96662 0,-1.41391 -1.16029,-3.49366 0.15142,0.76937 -0.93912,-1.41391 -0.36328,-0.7273 -0.85949,-3.15767 -1.40876,-4.24953 -0.35284,-0.70139 -1.55307,-1.53784 -1.89216,-1.88005 -0.15696,-0.1584 -0.31035,-1.2546 -0.46953,-1.41392 -0.24784,-0.24806 -0.69168,-0.22549 -0.93917,-0.47389 -0.24722,-0.24813 -0.22117,-0.69311 -0.46959,-0.94003 -0.44895,-0.44622 -1.91412,-0.9622 -2.36169,-1.41392 -1.0299,-1.03946 -1.75948,-2.69981 -2.83133,-3.77563 -3.48632,-3.49921 -8.63483,-4.9844 -12.73387,-7.54349 -0.692,-0.43203 -2.53024,-2.10595 -3.28705,-2.35394 -1.37349,-0.45005 -2.85016,-0.48017 -4.25385,-0.947787 -0.9175,-0.305652 -2.43073,0.425637 -3.30086,0 -2.49855,-1.222187 -5.75573,-0.978617 -8.48008,-1.880047 -0.70946,-0.234744 -1.6528,0.236162 -2.36172,0 -6.36265,-2.119598 -12.43877,-3.775628 -19.32183,-3.775628 -1.4002,0 -4.21854,-0.481401 -5.193,0.473887 L 109.941,75.538617 204.69944,74.590825" />
    <path
       style="fill:none;stroke:#000000;stroke-width:0.264583px;stroke-linecap:butt;stroke-linejoin:miter;stroke-opacity:1"
       d="m 206.1082,58.0977 -1.40876,16.493124"
       id="path552" />
    <path
       style="fill:#000000;stroke:none;stroke-width:1.78178"
       d="M 189.31384,838.21524 20.490439,679.20391 v -46.49558 -46.49561 l 147.442071,-147.61329 147.44207,-147.6133 -150.78147,1.24325 -150.781479,1.24326 -1.313402,-35.0284 c -0.722371,-19.26562 -0.967719,-35.37408 -0.545218,-35.79658 0.422502,-0.4225 172.899779,-0.97948 383.282839,-1.23773 l 382.51464,-0.46955 -0.90707,8.018 c -0.49888,4.4099 -1.72879,17.59893 -2.73314,29.30896 -1.00434,11.71003 -2.00858,21.47349 -2.23168,21.69658 -0.22309,0.2231 -80.56913,1.3246 -178.54677,2.44778 -97.97763,1.12318 -178.41844,2.31945 -178.75737,2.65839 -0.56506,0.56505 3.64788,45.97856 6.04787,65.19303 l 1.01944,8.16189 8.33772,-1.35419 c 10.06152,-1.63417 25.97926,0.57753 47.53682,6.60506 8.8198,2.46603 24.14271,5.18053 34.05092,6.03223 9.90822,0.8517 22.33611,2.78136 27.61755,4.28814 5.28144,1.50677 16.41792,3.1924 24.74773,3.74585 12.77782,0.84897 16.39837,1.82597 23.1631,6.25049 4.4099,2.88433 17.8215,10.07865 29.80356,15.98738 20.48953,10.10404 22.18676,11.34943 28.52955,20.93455 3.70922,5.60528 8.40926,11.02161 10.44455,12.03632 4.30147,2.14453 14.96588,12.46707 14.96588,14.48615 0,0.75674 1.92978,3.42427 4.28843,5.92783 2.35865,2.50357 5.10025,7.35824 6.09245,10.78816 3.37324,11.66081 6.53568,18.69241 12.95979,28.81565 3.52758,5.55886 8.23094,15.75838 10.45191,22.66563 l 4.03815,12.55861 -3.77026,6.39011 c -2.07365,3.51456 -3.77026,8.61606 -3.77026,11.33663 0,2.7206 -0.60135,5.55256 -1.33633,6.29326 -0.73499,0.7407 -1.44798,4.68288 -1.58445,8.76041 -0.39678,11.85619 -3.32107,28.43695 -5.82467,33.02604 -1.26955,2.32708 -6.83692,8.74147 -12.37196,14.25422 -6.57321,6.54675 -10.99068,12.79778 -12.73636,18.02287 -1.83673,5.49761 -4.20523,8.73246 -7.57255,10.34246 -2.69494,1.28851 -4.89989,3.50169 -4.89989,4.91818 0,1.54291 -1.74427,2.57544 -4.35076,2.57544 -2.67694,0 -8.2763,3.43516 -14.55445,8.92902 -10.13272,8.8669 -22.48774,14.23408 -32.76633,14.23408 -12.307,0 -28.17207,-6.94268 -45.59723,-19.95368 -4.98894,-3.72514 -11.06313,-6.77298 -13.49818,-6.77298 -2.43506,0 -6.31052,-2.0045 -8.61213,-4.45444 -2.30161,-2.44995 -5.27283,-4.45445 -6.60273,-4.45445 -1.3299,0 -2.86781,-1.17217 -3.41757,-2.60483 -0.54975,-1.43267 -2.72954,-3.12604 -4.84396,-3.76308 -2.11442,-0.63702 -5.8489,-3.06562 -8.29884,-5.39688 -2.44995,-2.33125 -6.6594,-6.21403 -9.35433,-8.62838 -6.69719,-5.9999 -6.55424,-14.69554 0.44544,-27.0983 2.93993,-5.20927 5.34533,-11.11911 5.34533,-13.13294 0,-6.52993 6.68195,-16.5821 20.85742,-31.37733 11.00912,-11.49049 15.25254,-14.73468 20.47504,-15.65368 9.4826,-1.66864 18.47208,2.56437 22.24412,10.47442 2.91025,6.10288 2.87691,6.82487 -0.82744,17.91944 -2.92707,8.76658 -3.44024,12.66411 -2.12342,16.12762 2.3283,6.12388 2.33098,6.11707 -2.40737,6.11707 -5.49502,0 -11.89214,7.04438 -11.89214,13.09541 0,11.5984 11.63378,18.99734 24.44602,15.54736 7.38914,-1.9897 16.2123,-10.10977 20.72392,-19.07252 1.54343,-3.06617 4.0386,-6.04776 5.54481,-6.62574 1.50622,-0.57799 2.73857,-2.62562 2.73857,-4.5503 0,-1.93317 1.59307,-4.00502 3.55942,-4.62911 5.49434,-1.74384 6.08757,-8.31559 1.67632,-18.56986 -3.56714,-8.29202 -3.83298,-10.94241 -2.71934,-27.11184 l 1.23433,-17.92137 -8.82659,-9.33281 c -4.85461,-5.13303 -12.53685,-15.12121 -17.07163,-22.19593 -11.32373,-17.66618 -22.01637,-27.8059 -36.78647,-34.88428 -13.71979,-6.57505 -25.22171,-8.84571 -58.20446,-11.49051 -15.05012,-1.20683 -24.38886,-2.88843 -30.12013,-5.42364 -4.56872,-2.02096 -8.61931,-3.36194 -9.0013,-2.97995 -0.382,0.382 4.10676,127.25705 9.97503,281.94457 7.29969,192.4194 10.08489,281.61138 8.81839,282.39413 -1.01816,0.62926 -11.59697,3.61895 -23.50847,6.64377 -18.98612,4.82136 -25.83272,5.63943 -55.51104,6.63284 l -33.85377,1.1332 z m 192.92704,21.04685 c 0.12081,-9.75981 -38.16226,-437.13151 -39.27234,-438.41467 -0.99596,-1.15126 -199.73037,164.63631 -215.40401,179.69363 l -4.28699,4.11841 128.12051,129.27459 c 70.46628,71.10102 128.72186,129.28863 129.45684,129.30581 0.73499,0.0178 1.35868,-1.77282 1.38599,-3.97777 z"
       id="path824"
       transform="scale(0.26458333)" />
  </g>
</svg>
