<?xml version="1.0" encoding="UTF-8" standalone="no"?>
<!-- Created with Inkscape (http://www.inkscape.org/) -->

<svg
   width="210mm"
   height="297mm"
   viewBox="0 0 210 297"
   version="1.1"
   id="svg633"
   inkscape:version="1.1.2 (0a00cf5339, 2022-02-04)"
   sodipodi:docname="KHA.svg"
   xmlns:inkscape="http://www.inkscape.org/namespaces/inkscape"
   xmlns:sodipodi="http://sodipodi.sourceforge.net/DTD/sodipodi-0.dtd"
   xmlns="http://www.w3.org/2000/svg"
   xmlns:svg="http://www.w3.org/2000/svg">
  <sodipodi:namedview
     id="namedview635"
     pagecolor="#ffffff"
     bordercolor="#666666"
     borderopacity="1.0"
     inkscape:pageshadow="2"
     inkscape:pageopacity="0.0"
     inkscape:pagecheckerboard="0"
     inkscape:document-units="mm"
     showgrid="false"
     inkscape:zoom="0.56123737"
     inkscape:cx="396.44544"
     inkscape:cy="559.47807"
     inkscape:window-width="1920"
     inkscape:window-height="1021"
     inkscape:window-x="0"
     inkscape:window-y="30"
     inkscape:window-maximized="1"
     inkscape:current-layer="layer1" />
  <defs
     id="defs630" />
  <g
     inkscape:label="Layer 1"
     inkscape:groupmode="layer"
     id="layer1">
    <path
       style="fill:none;stroke:#000000;stroke-width:0.264583px;stroke-linecap:butt;stroke-linejoin:miter;stroke-opacity:1"
       d="m 45.829537,91.565618 c 0.943761,0.629271 1.816997,1.379979 2.831277,1.887815 0.449413,0.225015 8.303572,0.08906 8.480076,0 0.846992,-0.427376 1.535239,-1.470766 2.361715,-1.887815 0.139737,-0.07051 0.399617,0.140023 0.469559,0 0.281202,-0.562946 -0.197363,-1.290294 0,-1.887813 0.33823,-1.023993 1.025827,-2.148713 1.408761,-3.301727 0.14855,-0.447286 -0.148543,-0.96664 0,-1.413926 0.167772,-0.505187 1.119595,-2.17179 0.469559,-2.827837 -0.352761,-0.356026 -1.387938,-0.921729 -1.87832,-1.413912 -0.542248,-0.544243 -0.624194,-1.489562 -1.422543,-1.880048 -0.281212,-0.137543 -0.718809,0.222377 -0.939146,0 -0.9672,-0.976148 1.472782,0.03229 -0.469585,-0.94779 -0.695397,-0.350882 -1.69241,-0.141385 -2.361719,-0.473903 -3.973457,-1.97404 -11.636306,-3.330877 -16.020946,-1.880047 -1.374101,0.454676 -2.143014,2.048819 -3.300892,2.827837 -0.585761,0.3941 -1.530257,0.704406 -1.89213,1.413928 -0.724178,1.419881 -1.817929,3.119874 -2.347878,4.715651 -0.863002,2.598655 -1.016842,10.922013 -0.469588,13.665287 0.137498,0.689255 0.769495,1.205756 0.939146,1.887812 0.124063,0.49879 0.363416,4.60851 0.469585,4.71565 0.246817,0.24908 0.691335,0.22584 0.939176,0.47391 0.221464,0.22166 -0.139102,0.65925 0,0.94002 0.481444,0.97179 0.627703,0.6234 1.422543,1.41391 0.112006,0.1114 -0.141028,0.40274 0,0.4739 0.279482,0.14103 0.635312,-0.0754 0.939146,0 1.611567,0.39993 3.075641,1.47455 4.709623,1.88005 0.480121,0.11915 0.93631,-0.2418 1.422546,0 0.141438,0.0703 -0.111189,0.36168 0,0.47389 0.186782,0.1885 1.14455,-0.0889 1.408731,0 1.369166,0.46059 2.358147,1.0576 3.77045,1.41393 2.245876,0.56663 4.82387,-0.089 7.071342,0.47388 1.827659,0.45776 14.682345,1.8443 16.504345,0.94003 2.196706,-1.09025 -2.077558,0.23278 1.408732,-0.94003 0.29672,-0.0998 0.71882,0.22238 0.939176,0 0.111185,-0.1122 -0.112001,-0.36249 0,-0.47388 0.699291,-0.69551 2.484953,-1.86549 3.300862,-2.35395 1.289153,-0.77179 3.136619,-1.25126 4.253849,-2.36171 0.248423,-0.24691 0.222343,-0.6919 0.469559,-0.94002 1.866659,-1.87354 3.141392,-2.4982 4.240035,-4.71565 0.383754,-0.77455 1.179398,-5.898138 1.408734,-6.12958 0.835372,-0.843052 2.943662,4.113869 3.300891,5.18955 0.411443,1.23893 1.048446,2.20752 1.422543,3.30173 0.294661,0.42366 -0.14855,0.96664 0,1.41393 0.472009,1.42122 0.58551,1.58845 1.408735,2.82783 0.637815,0.96026 -0.443172,5.26133 0,6.5957 0.705985,2.1257 1.750874,6.03949 0.939172,8.4835 -0.491849,1.48095 -1.841275,3.19021 -2.347907,4.71567 -0.14855,0.44728 0.215532,0.99478 0,1.41391 -0.769495,1.49639 -1.808019,3.17508 -2.831303,4.71567 -0.84464,1.27162 -2.455977,2.02973 -3.300865,3.30172 -0.0874,0.13159 0,0.31594 0,0.47391 -0.156528,0.31333 -0.259556,0.6597 -0.469585,0.94 -2.58322,3.44748 -6.249308,6.49952 -9.90259,8.95741 -0.839348,0.5647 -1.206222,1.84139 -1.89213,2.35394 -1.569223,1.17262 -5.237922,2.38336 -7.071344,3.30173 -1.089033,0.5455 -2.089576,1.96157 -3.287051,2.35395 -0.301861,0.0989 -0.651587,-0.1004 -0.952958,0 -0.781352,0.2603 -1.605357,1.70184 -2.347905,1.88781 -0.459975,0.11521 -0.95763,-0.0933 -1.422545,0 -1.138209,0.2284 -2.098165,1.11268 -3.300892,1.41392 -1.146394,0.28712 -2.236779,1.52987 -3.300862,1.88781 -1.787787,0.60138 -5.610071,0.41323 -7.071315,1.88782"
       id="path703" />
    <path
       style="fill:none;stroke:#000000;stroke-width:0.264583px;stroke-linecap:butt;stroke-linejoin:miter;stroke-opacity:1"
       d="m 45.829537,91.565618 c 4.429225,-0.942523 -1.552752,5.346043 0,6.129578 0.279482,0.141031 0.658736,-0.139174 0.939146,0 0.139174,0.06908 0,0.310748 0,0.466122 0.156528,0.157966 0.258601,0.403616 0.469588,0.473903 0.61686,0.205494 1.261695,0.314833 1.892131,0.473887 0.455308,0.114872 1.075478,-0.330824 1.408731,0 0.110271,0.109466 -0.110273,0.356672 0,0.466135 0.560666,0.556547 1.717821,0.148979 2.361719,0.473887 0.786603,0.39692 1.528871,1.13648 2.361718,1.41393 0.889268,0.29625 11.543226,0.23792 12.250494,0 1.603227,-0.53933 3.710662,-1.16948 5.179214,-1.887817 1.733584,-0.847976 6.898682,-8.701267 8.02427,-10.371328 0.554757,-0.823108 0.529357,-2.470182 0.939173,-3.293972 0.401809,-0.807694 1.677826,-2.617195 2.361718,-3.301725 0.110625,-0.110728 0.358934,0.110725 0.469559,0 0.913019,-0.913874 0.938889,-2.361094 1.40876,-3.301741 0.03886,-0.0778 2.74432,-3.724703 2.831275,-3.767862 2.593438,-1.287185 6.49709,3.610295 7.540903,5.181788 1.130551,1.70208 1.583655,6.294675 2.831303,7.54349 0.110625,0.110728 0.359392,-0.111183 0.469559,0 0.269319,0.271804 0.238834,1.540417 0.469592,1.887815 1.29518,1.949895 2.53477,3.348858 3.30086,5.655675 0.41452,1.248193 0.98898,2.503903 1.40876,3.76786 0.28424,0.855847 -0.2247,1.958047 0,2.835607 0.28242,1.10299 0.75796,2.11972 0.95296,3.29396 0.30542,1.83925 0.1048,5.40017 0.93917,7.07737 0.19728,0.39656 0.69408,0.57107 0.93915,0.94002 0.26476,0.39862 0.6687,4.32577 0.95298,5.18177 0.73135,2.2022 1.33519,4.42897 1.87832,6.60347 0.42648,1.70746 0.37371,10.37963 0,12.25916 -0.15653,0.4713 -0.31306,0.94261 -0.46959,1.41391 -0.15653,0.15538 -0.38785,0.26128 -0.46958,0.46613 -0.52838,1.32433 -0.30024,2.51517 -0.93915,3.77563 -0.806,1.59011 -2.33007,2.79082 -3.30089,4.24174 -1.78373,2.66581 -5.751628,8.5137 -8.493859,9.89743 -0.327338,1.44454 -1.301827,0.18301 -1.87832,0.47391 -1.748009,0.88204 -4.09543,2.98355 -5.66258,3.76786 -4.122616,2.06323 2.513245,-2.452 -1.87832,0.4739 -1.142603,0.76127 -2.488089,1.93376 -3.77045,2.35392 -1.098489,0.35992 -2.247685,0.60271 -3.300862,0.94781 -0.719011,0.2356 -1.646272,1.2334 -2.361719,1.41391 -0.901739,0.22751 -2.466194,0.045 -3.300862,0.46614 -0.19854,0.10018 -0.31306,0.31593 -0.469588,0.4739 -0.313057,0 -0.65968,-0.14103 -0.939175,0 -0.141023,0.0711 0.112797,0.36329 0,0.47387 -0.163293,0.16009 -1.78521,-0.0354 -1.892131,0 -0.999648,0.33078 -2.237417,1.41394 -3.300862,1.41394"
       id="path705" />
    <path
       style="fill:none;stroke:#000000;stroke-width:0.264583px;stroke-linecap:butt;stroke-linejoin:miter;stroke-opacity:1"
       d="M 43.937406,162.75099 137.7567,246.66165 150.00722,79.78038 191.0264,78.840355 190.08723,62.339449 132.09412,64.219497 126.91493,216.02155 67.982652,169.8206"
       id="path742" />
    <path
       style="fill:#000000;stroke-width:1.78178"
       d="M 348.06675,775.85558 C 254.62779,692.36342 176.17323,622.12621 173.72328,619.77287 c -5.43659,-5.22221 -3.59779,-6.90315 9.52584,-8.70811 4.84296,-0.66608 14.28518,-3.99492 20.98271,-7.39746 6.69754,-3.40252 14.21673,-6.41026 16.70932,-6.68387 2.49259,-0.27361 6.15643,-1.9676 8.14186,-3.76438 1.98544,-1.7968 4.72518,-3.4306 6.08833,-3.63066 1.36314,-0.20008 5.13323,-2.36755 8.37796,-4.81664 3.24473,-2.44909 11.11122,-6.5741 17.48107,-9.16671 6.36985,-2.59259 13.98695,-7.30725 16.92689,-10.47699 2.93993,-3.16975 10.73286,-9.99661 17.31762,-15.1708 12.71576,-9.99184 26.33592,-24.3618 26.33592,-27.78575 0,-1.13312 3.25627,-5.22968 7.23617,-9.10348 7.49252,-7.29279 18.84798,-25.20659 17.09165,-26.96292 -0.54977,-0.54977 1.36867,-5.69103 4.26318,-11.42504 5.97273,-11.83189 6.61334,-20.43823 2.63429,-35.39021 -1.64932,-6.19756 -2.20237,-13.39033 -1.52665,-19.85518 0.81307,-7.77889 0.38335,-11.10255 -1.84711,-14.28698 -1.59866,-2.2824 -2.90665,-5.98902 -2.90665,-8.23692 0,-2.24791 -3.55336,-11.6911 -7.89637,-20.98488 -8.23433,-17.62098 -12.48244,-21.13667 -14.49742,-11.99788 -3.90955,17.73153 -6.43505,23.07042 -15.20237,32.13784 -5.00963,5.1811 -12.91797,11.35064 -17.57411,13.71008 -4.65614,2.35944 -10.78496,6.19981 -13.6196,8.53413 -10.77155,8.87042 -18.28625,10.39765 -41.27933,8.38932 -11.49028,-1.0036 -25.70223,-2.60266 -31.58209,-3.55345 -5.87987,-0.95077 -14.24188,-1.73474 -18.58225,-1.74215 -7.85629,-0.0134 -25.00059,-4.45485 -42.03262,-10.88912 -4.91882,-1.8582 -9.58644,-3.37855 -10.37249,-3.37855 -2.36355,0 -6.51995,-4.90873 -6.51995,-7.7001 0,-1.43512 -1.2027,-3.07082 -2.67267,-3.6349 -1.76104,-0.67578 -2.67267,-3.46338 -2.67267,-8.17257 0,-3.93084 -1.29874,-10.39286 -2.8861,-14.36005 -2.29146,-5.72692 -2.72525,-11.69989 -2.10543,-28.98994 0.70837,-19.75989 1.26448,-22.71826 6.00421,-31.941 7.54245,-14.67635 21.07245,-25.75528 33.28102,-27.25189 11.12384,-1.36364 30.06544,1.4132 42.89046,6.28775 5.07762,1.92992 10.66036,3.50934 12.40607,3.50983 1.74572,5e-4 3.63555,1.2036 4.19963,2.67357 0.56408,1.46996 1.78136,2.67266 2.70506,2.67266 0.92371,0 4.55932,2.79688 8.07914,6.21529 l 6.39968,6.21528 -2.99409,11.15705 c -1.64675,6.13637 -3.48431,13.10334 -4.08347,15.48215 -0.59916,2.37881 -3.17366,6.16202 -5.72113,8.40713 -4.1099,3.62212 -6.50744,4.08837 -21.27999,4.13834 -15.17475,0.0513 -16.73073,-0.2591 -17.58014,-3.50725 -0.60306,-2.30611 -2.43037,-3.56356 -5.17852,-3.56356 -4.90798,0 -5.40592,1.43213 -1.4928,4.29347 2.4535,1.79404 2.33369,2.96348 -1.0986,10.72274 l -3.85245,8.70909 4.21672,3.24284 c 2.31919,1.78356 6.82257,3.26067 10.00749,3.28246 3.18493,0.0218 5.79078,0.84142 5.79078,1.82139 0,0.97998 1.57891,1.78178 3.50869,1.78178 1.92978,0 6.70569,1.66637 10.61314,3.70305 6.37922,3.32503 9.52238,3.6367 30.79052,3.05309 34.89268,-0.95749 39.66739,-3.19405 57.30517,-26.84285 7.47448,-10.02182 14.53908,-21.4287 15.69909,-25.34861 2.33331,-7.88474 7.72794,-16.64229 12.32206,-20.00343 1.6431,-1.20211 3.5302,-4.3482 4.19359,-6.99131 1.85236,-7.38039 11.81078,-20.22236 15.68162,-20.22236 1.87222,0 7.99778,4.61035 13.61232,10.24522 8.63,8.66123 10.69894,12.03582 13.38194,21.82677 1.74552,6.36986 4.48445,13.58606 6.08648,16.036 12.091,18.4903 20.12807,36.44245 21.93652,48.99887 0.84684,5.87987 2.45268,17.50597 3.56854,25.83578 1.11586,8.3298 3.52469,17.93953 5.35299,21.35493 1.82828,3.41542 3.32416,7.85998 3.32416,9.87681 0,2.01683 2.10225,10.84851 4.67166,19.62593 3.96944,13.56011 4.66457,19.33763 4.62451,38.43624 -0.0356,17.02032 -0.73728,23.81185 -2.88988,27.97451 -1.56351,3.02348 -2.84696,6.94021 -2.85211,8.70383 -0.0125,3.96628 -2.30779,7.45615 -21.61631,32.85373 -15.3811,20.23164 -23.70979,28.26063 -29.31547,28.26063 -1.6376,0 -6.88363,2.8063 -11.65781,6.23622 -4.77421,3.42992 -10.08167,6.25853 -11.79435,6.28579 -1.7127,0.0273 -6.22247,2.40201 -10.02172,5.27721 -3.79925,2.87522 -11.01544,6.57662 -16.03599,8.22536 -5.02055,1.64874 -10.70984,4.08478 -12.64285,5.41344 -1.933,1.32867 -5.0326,2.41575 -6.88797,2.41575 -6.08905,0 -35.09951,10.20372 -34.96361,12.29759 0.0832,1.28165 221.78127,174.97328 223.86506,175.38937 1.30501,0.26059 19.79834,-512.04853 20.0613,-555.74509 l 0.10796,-17.93889 107.82085,-3.27062 c 59.30148,-1.79884 108.16116,-2.93033 108.57708,-2.51441 0.84982,0.84982 4.79331,57.15099 4.05474,57.88955 -0.26014,0.26014 -34.92855,1.38661 -77.04095,2.50328 -42.11239,1.11666 -76.81418,2.27649 -77.11509,2.5774 -0.3009,0.30091 -10.85916,141.018 -23.4628,312.70464 -12.60363,171.68666 -23.30965,312.55149 -23.79114,313.03298 -0.48149,0.48149 -77.3255,-67.43633 -170.76447,-150.92849 z"
       id="path974"
       transform="scale(0.26458333)" />
  </g>
</svg>
